# AST/ASF file generated using VICON BodyLanguage
# -----------------------------------------------
:version 1.10
:name VICON
:units
  mass 1.0
  length 0.45
  angle deg
:documentation
   .ast/.asf automatically generated from VICON data using
   VICON BodyBuilder and BodyLanguage model FoxedUp or BRILLIANT.MOD
:root
   order TX TY TZ RX RY RZ
   axis XYZ
   position 0 0 0  
   orientation 0 -0 0 
:bonedata
  begin
     id 1 
     name lhipjoint
     direction 0.432694 -0.693742 0.575759 
     length 2.19277 
     axis 0 -0 0  XYZ
  end
  begin
     id 2 
     name lfemur
     direction 0.34202 -0.939693 0  
     length 6.69022  
     axis 0 -0 20  XYZ
    dof rx ry rz
    limits (-160.0 20.0)
           (-70.0 70.0)
           (-60.0 70.0)
  end
  begin
     id 3 
     name ltibia
     direction 0.34202 -0.939693 0   
     length 6.50337   
     axis 0 -0 20   XYZ
    dof rx
    limits (-10.0 170.0)
  end
  begin
     id 4 
     name lfoot
     direction 0.158999 -0.435969 0.885805   
     length 2.70564   
     axis -90 -1.13533e-015 20   XYZ
    dof rx rz
    limits (-45.0 90.0)
           (-70.0 20.0)
  end
  begin
     id 5 
     name ltoes
     direction -0.00592919 0.00964381 0.999936   
     length 1.29929   
     axis -90 -1.13533e-015 20   XYZ
    dof rx
    limits (-90.0 20.0)
  end
  begin
     id 6 
     name rhipjoint
     direction -0.414359 -0.700339 0.581234   
     length 2.17212  
     axis 0 -0 0  XYZ 
  end
  begin
     id 7 
     name rfemur
     direction -0.34202 -0.939693 0   
     length 7.17659   
     axis 0 -0 -20   XYZ
    dof rx ry rz
    limits (-160.0 20.0)
           (-70.0 70.0)
           (-70.0 60.0)
  end
  begin
     id 8 
     name rtibia
     direction -0.34202 -0.939693 0   
     length 6.36669   
     axis 0 -0 -20   XYZ
    dof rx
    limits (-10.0 170.0)
 end
 begin
     id 9 
     name rfoot
     direction -0.137064 -0.37658 0.916188   
     length 2.22351  
     axis -90 1.13533e-015 -20   XYZ
    dof rx rz
    limits (-45.0 90.0)
           (-20.0 70.0)
  end
  begin
     id 10 
     name rtoes
     direction -0.000784077 -0.00289101 0.999996   
     length 1.09522   
     axis -90 1.13533e-015 -20   XYZ
    dof rx
    limits (-90.0 20.0)
  end
  begin
     id 11 
     name lowerback
     direction -0.0176242 0.984912 -0.172157   
     length 1.65301   
     axis 0 -0 0   XYZ
    dof rx ry rz
    limits (-20.0 45.0)
           (-30.0 30.0)
           (-30.0 30.0)
  end
  begin
     id 12 
     name upperback
     direction -0.00218128 0.998776 -0.0494072   
     length 1.67776   
     axis 0 -0 0   XYZ
    dof rx ry rz
    limits (-20.0 45.0)
           (-30.0 30.0)
           (-30.0 30.0)
  end
  begin
     id 13 
     name thorax
     direction 0.00544186 0.999658 0.0255711   
     length 1.72293   
     axis 0 -0 0   XYZ
    dof rx ry rz
    limits (-20.0 45.0)
           (-30.0 30.0)
           (-30.0 30.0)
  end
  begin
     id 14 
     name lowerneck
     direction -0.105325 0.983841 0.144785   
     length 2.14226   
     axis 0 -0 0   XYZ
    dof rx ry rz
    limits (-20.0 45.0)
           (-30.0 30.0)
           (-30.0 30.0)
  end
  begin
     id 15 
     name upperneck
     direction 0.0547957 0.988053 -0.144041   
     length 2.17508   
     axis 0 -0 0   XYZ
    dof rx ry rz
    limits (-20.0 45.0)
           (-30.0 30.0)
           (-30.0 30.0)
  end
  begin
     id 16
     name head
     direction 0.0247488 0.997534 -0.0656813  
     length 2.20048  
     axis 0 -0 0   XYZ
    dof rx ry rz
    limits (-20.0 45.0)
           (-30.0 30.0)
           (-30.0 30.0)
  end
  begin
     id 17 
     name lclavicle
     direction 0.820559 0.567247 -0.0701026  
     length 4.09615  
     axis 0 -0 0   XYZ
    dof ry rz
    limits (-20.0 10.0)
           (0.0 20.0)
  end
  begin
     id 18 
     name lhumerus
     direction 0.999977 -0.0067566 -9.96392e-005   
     length 4.59333   
     axis -180 -30 -90   XYZ
    dof rx ry rz
    limits (-60.0 90.0)
           (-90.0 90.0)
           (-90.0 90.0)
  end
  begin
     id 19
     name lradius
     direction 1 -4.48982e-011 -2.53425e-027   
     length 2.81151   
     axis -180 -30 -90   XYZ
    dof rx
    limits (-10.0 170.0)
  end
  begin
     id 20
     name lwrist
     direction 1 -4.48939e-011 -7.39254e-028   
     length 1.40576   
     axis 2.56395e-016 90 90   XYZ
    dof ry
    limits (-180.0 0.0)
 end
  begin
     id 21 
     name lhand
     direction 1 -4.48939e-011 -1.47851e-027   
     length 0.895651   
     axis 9.43423e-016 90 90   XYZ
    dof rx rz
    limits (-90.0 90.0)
           (-45.0 45.0)
  end
  begin
     id 22 
     name lfingers
     direction 1 -4.48978e-011 -2.95702e-027   
     length 0.722097   
     axis 1.88685e-015 90 90   XYZ
    dof rx
    limits (0.0 90.0)
  end
  begin
     id 23
     name lthumb
     direction 0.707107 -6.34931e-011 0.707107   
     length 1.03679   
     axis -90 45 -9.86935e-015   XYZ
    dof rx rz
    limits (-45.0 45.0)
           (-45.0 45.0)
  end
  begin
     id 24 
     name rclavicle
     direction -0.831414 0.553102 -0.0531864   
     length 4.24872  
     axis 0 -0 0   XYZ 
    dof ry rz
    limits (-10.0 20.0)
           (-20.0 0.0)
  end
  begin
     id 25 
     name rhumerus
     direction -0.999916 -0.000939607 0.0129331  
     length 4.74834   
     axis -180 30 90   XYZ
    dof rx ry rz
    limits (-90.0 60.0)
           (-90.0 90.0)
           (-90.0 90.0)
  end
  begin
     id 26 
     name rradius
     direction -1 -4.48956e-011 -1.31752e-027   
     length 2.79907   
     axis -180 30 90   XYZ
    dof rx
    limits (-10.0 170.0)
  end
  begin
     id 27 
     name rwrist
     direction -1 -4.4897e-011 -7.39254e-028   
     length 1.39954   
     axis 2.56395e-016 -90 -90   XYZ
    dof ry
    limits (-180.0 0.0)
  end
  begin
     id 28
     name rhand
     direction -0.999997 -0.00250697 0.000800838   
     length 0.953304   
     axis 9.43423e-016 -90 -90   XYZ
    dof rx rz
    limits (-90.0 90.0)
           (-45.0 45.0)
  end
  begin
     id 29
     name rfingers
     direction -1 -4.48954e-011 -2.95702e-027   
     length 0.763342   
     axis 1.88685e-015 -90 -90   XYZ
    dof rx
    limits (0.0 90.0)
  end
  begin
     id 30
     name rthumb
     direction -0.709701 -0.00217037 0.7045   
     length 1.10115   
     axis -90 -45 9.86935e-015   XYZ
    dof rx rz
    limits (-45.0 45.0)
           (-45.0 45.0)
  end
:hierarchy
  begin
    root lhipjoint rhipjoint lowerback
    lhipjoint lfemur
    lfemur ltibia
    ltibia lfoot
    lfoot ltoes
    rhipjoint rfemur
    rfemur rtibia
    rtibia rfoot
    rfoot rtoes
    lowerback upperback
    upperback thorax
    thorax lowerneck lclavicle rclavicle
    lowerneck upperneck
    upperneck head
    lclavicle lhumerus
    lhumerus lradius
    lradius lwrist
    lwrist lhand lthumb
    lhand lfingers
    rclavicle rhumerus
    rhumerus rradius
    rradius rwrist
    rwrist rhand rthumb
    rhand rfingers
  end

#!OML:ASF G:\ViconDB\ViconDB\414\test\team2\shane.ASF
:FULLY-SPECIFIED
:DEGREES
110
root 2.96667 16.4311 -21.8954 -6.12561 9.83105 -5.42538
lowerback 9.50345 -2.32393 1.39507
upperback 6.93933 -2.96493 0.950113
thorax 1.86672 -1.44971 0.428035
lowerneck -6.78902 -7.80376 -12.391
upperneck 12.9895 -9.02184 0.111864
head 5.6448 -4.97556 1.34446
rclavicle 1.63003e-014 -1.11319e-014
rhumerus -14.5168 12.9141 -35.5906
rradius 110.184
rwrist 151.949
rhand -14.9983 15.4654
rfingers 7.12502
rthumb 11.1664 -14.2174
lclavicle 1.63003e-014 -1.11319e-014
lhumerus -34.9074 -34.2675 93.1407
lradius 38.0957
lwrist -16.7616
lhand -37.906 5.19177
lfingers 7.12502
lthumb -10.9486 34.8863
rfemur -24.3871 -21.535 19.13
rtibia 29.1587
rfoot -21.0981 0.705572
rtoes -18.4384
lfemur 27.7557 -3.37647 -8.60484
ltibia -3.81667e-014
lfoot -23.5533 -15.445
ltoes -11.9045
111
root 2.92858 16.3785 -21.7009 -6.17331 10.3688 -5.37872
lowerback 9.55842 -2.40746 1.46299
upperback 6.73289 -3.06575 1.04821
thorax 1.62251 -1.50116 0.506875
lowerneck -6.72297 -7.83878 -12.3294
upperneck 12.7216 -9.10413 0.196381
head 5.55389 -4.99969 1.36231
rclavicle 3.66758e-014 -3.02153e-014
rhumerus -15.4248 14.5424 -34.9935
rradius 111.06
rwrist 152.195
rhand -15.6278 14.263
rfingers 7.12502
rthumb 10.5592 -15.4517
lclavicle 3.66758e-014 -3.02153e-014
lhumerus -35.3962 -34.4381 93.2034
lradius 38.6122
lwrist -17.5438
lhand -38.184 5.91369
lfingers 7.12502
lthumb -11.2167 35.5938
rfemur -23.9386 -21.0339 19.0304
rtibia 29.7266
rfoot -20.8674 0.105016
rtoes -18.017
lfemur 28.3916 -3.80235 -8.43031
ltibia 3.81667e-014
lfoot -23.8878 -15.3277
ltoes -13.4248
112
root 2.88355 16.3509 -21.5028 -6.17389 11.0834 -5.44195
lowerback 9.49785 -2.57239 1.49818
upperback 6.6009 -3.28075 1.23125
thorax 1.52666 -1.61175 0.693914
lowerneck -6.9809 -7.88739 -12.4748
upperneck 12.7409 -9.13788 0.357378
head 5.61984 -5.01249 1.41985
rclavicle 7.15625e-015 -1.35174e-014
rhumerus -16.1962 15.9435 -34.7306
rradius 111.923
rwrist 152.258
rhand -15.7337 13.191
rfingers 7.12502
rthumb 10.4571 -16.5289
lclavicle 7.15625e-015 -1.35174e-014
lhumerus -35.5317 -34.1043 93.1424
lradius 38.8717
lwrist -17.9081
lhand -38.5129 5.67517
lfingers 7.12502
lthumb -11.5339 35.3378
rfemur -23.579 -20.477 19.0632
rtibia 30.5104
rfoot -20.2184 -0.134953
rtoes -17.4907
lfemur 28.8253 -4.42758 -8.08918
ltibia 6.36111e-014
lfoot -23.8446 -15.4917
ltoes -14.9019
113
root 2.84089 16.3621 -21.2879 -6.17788 11.5598 -5.1064
lowerback 9.56416 -2.60419 1.04296
upperback 6.31028 -3.35022 1.42089
thorax 1.22408 -1.66545 1.15975
lowerneck -6.82855 -7.87319 -12.8043
upperneck 12.8579 -9.09298 0.322454
head 5.64497 -5.01247 1.46501
rclavicle 1.32192e-014 -1.51076e-014
rhumerus -16.1962 15.9435 -34.7306
rradius 111.923
rwrist 152.258
rhand -15.7337 13.191
rfingers 7.12502
rthumb 10.4571 -16.5289
lclavicle 7.15625e-015 -1.35174e-014
lhumerus -35.5317 -34.1043 93.1424
lradius 38.8717
lwrist -17.9081
lhand -38.5129 5.67517
lfingers 7.12502
lthumb -11.5339 35.3378
rfemur -23.3829 -20.4709 18.9258
rtibia 31.3497
rfoot -18.5749 0.369516
rtoes -18.114
lfemur 29.3953 -4.82743 -8.05201
ltibia 9.54166e-015
lfoot -23.1514 -16.5509
ltoes -15.1839
114
root 2.79795 16.395 -21.0685 -6.13352 11.9222 -5.11093
lowerback 9.34891 -2.71601 1.25864
upperback 6.11588 -3.48474 1.42269
thorax 1.12788 -1.72678 1.04733
lowerneck -6.76405 -7.79847 -12.7296
upperneck 12.998 -9.00126 0.263836
head 5.66633 -4.97334 1.44404
rclavicle -3.19546e-014 -9.93923e-016
rhumerus -16.1962 15.9435 -34.7306
rradius 111.923
rwrist 152.258
rhand -15.7337 13.191
rfingers 7.12502
rthumb 10.4571 -16.5289
lclavicle 7.15625e-015 -1.35174e-014
lhumerus -35.5317 -34.1043 93.1424
lradius 38.8717
lwrist -17.9081
lhand -38.5129 5.67517
lfingers 7.12502
lthumb -11.5339 35.3378
rfemur -23.5362 -20.129 19.1507
rtibia 32.1931
rfoot -15.4731 0.463562
rtoes -16.7926
lfemur 29.8451 -5.12054 -7.68687
ltibia -3.18055e-014
lfoot -22.4584 -17.1618
ltoes -16.6773
115
root 2.75043 16.4095 -20.8569 -6.10317 12.2146 -5.13536
lowerback 9.36977 -2.77608 1.27309
upperback 5.81704 -3.55733 1.58358
thorax 0.81553 -1.76637 1.22103
lowerneck -6.66731 -7.6843 -12.8642
upperneck 13.5017 -8.81229 0.100647
head 5.79908 -4.91559 1.4242
rclavicle 2.15184e-014 -1.05356e-014
rhumerus -19.5591 18.4903 -35.697
rradius 115.259
rwrist 153.927
rhand -15.8509 10.5587
rfingers 7.12502
rthumb 10.3439 -19.1669
lclavicle 2.15184e-014 -1.05356e-014
lhumerus -37.0871 -32.0306 93.7058
lradius 39.2705
lwrist -18.0382
lhand -39.7822 6.4827
lfingers 7.12502
lthumb -12.7578 36.0729
rfemur -23.2682 -18.1809 18.9464
rtibia 32.9369
rfoot -13.1445 -0.876399
rtoes -13.7945
lfemur 30.2957 -5.34945 -7.3014
ltibia -6.36111e-014
lfoot -21.6056 -17.7031
ltoes -18.4017
116
root 2.70149 16.4203 -20.6493 -6.06411 12.3659 -5.2923
lowerback 9.2099 -2.80487 1.39592
upperback 5.64231 -3.58734 1.74019
thorax 0.724363 -1.78123 1.3133
lowerneck -6.98942 -7.58156 -12.5887
upperneck 14.4889 -8.56315 -0.421716
head 6.11915 -4.84846 1.21121
rclavicle -1.41634e-014 2.98177e-014
rhumerus -20.8465 18.174 -36.743
rradius 116.464
rwrist 155.106
rhand -15.9803 10.7192
rfingers 7.12502
rthumb 10.2192 -19.0125
lclavicle -1.41634e-014 2.98177e-014
lhumerus -37.2871 -31.1232 93.789
lradius 38.9067
lwrist -17.7475
lhand -40.2744 6.95147
lfingers 7.12502
lthumb -13.2322 36.5115
rfemur -22.8328 -16.0888 18.9406
rtibia 33.5794
rfoot -12.249 -2.54174
rtoes -11.5063
lfemur 30.8142 -5.42863 -6.82521
ltibia -6.99722e-014
lfoot -20.9554 -17.8375
ltoes -21.1016
117
root 2.65495 16.4538 -20.4408 -6.13121 12.4522 -5.39031
lowerback 9.34614 -2.82734 1.60013
upperback 5.4158 -3.59186 1.84502
thorax 0.409177 -1.78099 1.32235
lowerneck -7.43264 -7.4916 -12.5168
upperneck 15.8228 -8.28789 -0.837527
head 6.59016 -4.78646 1.05246
rclavicle 3.06377e-014 -2.8128e-014
rhumerus -22.2099 17.2702 -37.7274
rradius 117.139
rwrist 154.488
rhand -16.3647 9.73923
rfingers 7.12502
rthumb 9.84833 -20.0104
lclavicle 3.06377e-014 -2.8128e-014
lhumerus -37.7188 -30.0933 93.8636
lradius 38.6951
lwrist -17.5695
lhand -40.7161 6.67241
lfingers 7.12502
lthumb -13.658 36.2043
rfemur -22.1777 -14.8814 19.051
rtibia 34.084
rfoot -12.3653 -3.20381
rtoes -9.85584
lfemur 31.3153 -5.51609 -6.28998
ltibia -3.81667e-014
lfoot -18.8863 -18.7403
ltoes -22.3074
118
root 2.60967 16.4855 -20.2387 -6.18439 12.5088 -5.50852
lowerback 9.32094 -2.85999 1.65507
upperback 5.32576 -3.62861 2.02613
thorax 0.338755 -1.80116 1.48307
lowerneck -7.90313 -7.41795 -12.3644
upperneck 17.0313 -8.01724 -1.3681
head 7.02407 -4.73005 0.845269
rclavicle -2.38542e-014 3.63776e-014
rhumerus -23.375 15.7958 -38.7724
rradius 117.652
rwrist 154.774
rhand -16.3105 8.19315
rfingers 7.12502
rthumb 9.90058 -21.5541
lclavicle -2.38542e-014 3.63776e-014
lhumerus -37.8288 -28.9917 93.9127
lradius 38.3058
lwrist -17.2009
lhand -41.0654 7.26287
lfingers 7.12502
lthumb -13.9946 36.7718
rfemur -21.6268 -14.6785 19.3608
rtibia 34.5475
rfoot -13.0225 -2.73354
rtoes -8.98857
lfemur 31.7842 -5.53047 -5.83699
ltibia 2.8625e-014
lfoot -17.2835 -19.2182
ltoes -24.7265
119
root 2.56451 16.5174 -20.0391 -6.36637 12.5245 -5.50132
lowerback 9.65689 -2.84482 1.75577
upperback 5.15293 -3.58314 2.11475
thorax -0.0249838 -1.77816 1.53807
lowerneck -8.22722 -7.2979 -12.2733
upperneck 18.3792 -7.69768 -1.81025
head 7.48964 -4.65595 0.682438
rclavicle 1.56667e-014 -1.48095e-014
rhumerus -24.6522 13.9635 -39.8029
rradius 118.639
rwrist 154.885
rhand -16.2542 8.57446
rfingers 7.12502
rthumb 9.95487 -21.1701
lclavicle 1.56667e-014 -1.48095e-014
lhumerus -38.3021 -28.0279 94.1317
lradius 37.9951
lwrist -16.7768
lhand -41.185 7.76062
lfingers 7.12502
lthumb -14.1099 37.2616
rfemur -20.8096 -14.592 19.4651
rtibia 34.9042
rfoot -13.9325 -2.60142
rtoes -9.36926
lfemur 32.3901 -5.53136 -5.52223
ltibia 9.54166e-015
lfoot -14.8062 -19.781
ltoes -26.6358
120
root 2.52019 16.5555 -19.8376 -6.50996 12.646 -5.46482
lowerback 9.74668 -2.85809 1.73402
upperback 5.07319 -3.59592 2.22601
thorax -0.147867 -1.78661 1.67367
lowerneck -8.6925 -7.18194 -12.1605
upperneck 19.9553 -7.35254 -2.23352
head 8.06443 -4.57884 0.514059
rclavicle 5.50975e-014 -3.89525e-014
rhumerus -25.712 11.4919 -40.79
rradius 119.398
rwrist 154.646
rhand -16.0373 8.68762
rfingers 7.12502
rthumb 10.1641 -21.0469
lclavicle 5.50975e-014 -3.89525e-014
lhumerus -38.6179 -27.3481 94.2918
lradius 37.7626
lwrist -15.5677
lhand -41.0879 7.4647
lfingers 7.12502
lthumb -14.0163 36.9721
rfemur -19.9337 -14.9696 19.4984
rtibia 35.1854
rfoot -14.8567 -2.53092
rtoes -9.45221
lfemur 32.8789 -5.62903 -5.23266
ltibia 6.04305e-014
lfoot -11.5618 -20.256
ltoes -28.3553
121
root 2.48262 16.5899 -19.6386 -6.61796 12.691 -5.57014
lowerback 9.61798 -2.8833 2.13937
upperback 5.07548 -3.59976 2.25401
thorax -0.0974556 -1.78096 1.47018
lowerneck -9.24203 -7.06384 -11.852
upperneck 21.6136 -6.99755 -2.72997
head 8.68293 -4.49607 0.285991
rclavicle 5.57467e-014 -1.74434e-014
rhumerus -26.4544 8.27126 -41.6502
rradius 120.059
rwrist 153.793
rhand -16.0055 8.52689
rfingers 7.12502
rthumb 10.1948 -21.2061
lclavicle 5.57467e-014 -1.74434e-014
lhumerus -38.8559 -26.4829 94.268
lradius 37.4558
lwrist -15.5403
lhand -40.9996 7.80963
lfingers 7.12502
lthumb -13.9312 37.3229
rfemur -19.0816 -15.4886 19.6284
rtibia 35.3272
rfoot -15.7178 -2.07321
rtoes -9.17987
lfemur 29.7584 -5.47407 -4.83501
ltibia 7.53598
lfoot -12.418 -20.2065
ltoes -29.581
